<svg xmlns="http://www.w3.org/2000/svg" width="61" height="33" viewBox="0 0 61 33">
  <g id="Group_19930" data-name="Group 19930" transform="translate(-5117 8957)">
    <g id="Group_19929" data-name="Group 19929" transform="translate(5055 -9220)">
      <path id="XMLID_34_" d="M7.824,2.25a2.611,2.611,0,0,1-2.092.988,2.96,2.96,0,0,1,.747-2.167A3.12,3.12,0,0,1,8.554,0a3.152,3.152,0,0,1-.73,2.25M8.546,3.4c-1.154-.066-2.142.656-2.69.656s-1.395-.623-2.308-.606A3.41,3.41,0,0,0,.651,5.2c-1.245,2.142-.324,5.313.88,7.056.589.863,1.295,1.81,2.225,1.776.88-.033,1.229-.573,2.291-.573s1.378.573,2.308.556c.963-.017,1.569-.863,2.158-1.727a7.572,7.572,0,0,0,.963-1.984A3.128,3.128,0,0,1,9.6,7.463,3.194,3.194,0,0,1,11.119,4.79,3.29,3.29,0,0,0,8.546,3.4M15.212.988V13.929H17.22V9.5H20a4.108,4.108,0,0,0,4.325-4.267A4.059,4.059,0,0,0,20.068.988H15.212ZM17.22,2.681h2.316a2.414,2.414,0,0,1,2.739,2.565A2.423,2.423,0,0,1,19.528,7.82H17.22ZM28,14.029a3.324,3.324,0,0,0,2.963-1.652H31v1.552H32.86V7.488c0-1.868-1.494-3.071-3.794-3.071-2.133,0-3.711,1.22-3.769,2.9h1.81a1.764,1.764,0,0,1,1.9-1.32c1.229,0,1.918.573,1.918,1.627v.714l-2.507.149c-2.333.141-3.594,1.1-3.594,2.756C24.824,12.917,26.128,14.029,28,14.029Zm.54-1.536c-1.071,0-1.752-.515-1.752-1.3,0-.814.656-1.287,1.909-1.361l2.233-.141v.73A2.183,2.183,0,0,1,28.535,12.493Zm6.807,4.956c1.959,0,2.88-.747,3.686-3.013l3.528-9.895H40.513l-2.366,7.645h-.042L35.74,4.541h-2.1l3.4,9.422-.183.573a1.6,1.6,0,0,1-1.693,1.345c-.158,0-.465-.017-.589-.033V17.4A5.533,5.533,0,0,0,35.342,17.449Z" transform="translate(70.941 271)"/>
      <g id="Group_19925" data-name="Group 19925" transform="translate(-1338 -367.155)">
        <g id="Group_19926" data-name="Group 19926">
          <g id="Path_6663" data-name="Path 6663" transform="translate(1400 630.155)" fill="none" opacity="0.64">
            <path d="M2,0H59a2.068,2.068,0,0,1,2,2.129V30.871A2.068,2.068,0,0,1,59,33H2a2.068,2.068,0,0,1-2-2.129V2.129A2.068,2.068,0,0,1,2,0Z" stroke="none"/>
            <path d="M 2 1 C 1.448600769042969 1 1 1.506479263305664 1 2.129030227661133 L 1 30.87096977233887 C 1 31.49352073669434 1.448600769042969 32 2 32 L 59 32 C 59.55139923095703 32 60 31.49352073669434 60 30.87096977233887 L 60 2.129030227661133 C 60 1.506479263305664 59.55139923095703 1 59 1 L 2 1 M 2 0 L 59 0 C 60.10456848144531 0 61 0.9532012939453125 61 2.129030227661133 L 61 30.87096977233887 C 61 32.04679870605469 60.10456848144531 33 59 33 L 2 33 C 0.8954315185546875 33 0 32.04679870605469 0 30.87096977233887 L 0 2.129030227661133 C 0 0.9532012939453125 0.8954315185546875 0 2 0 Z" stroke="none" fill="#cbd5dc"/>
          </g>
        </g>
        <g id="Group_19927" data-name="Group 19927">
          <g id="Path_6663-2" data-name="Path 6663" transform="translate(1400 630.155)" fill="none" opacity="0.64">
            <path d="M2,0H59a2.068,2.068,0,0,1,2,2.129V30.871A2.068,2.068,0,0,1,59,33H2a2.068,2.068,0,0,1-2-2.129V2.129A2.068,2.068,0,0,1,2,0Z" stroke="none"/>
            <path d="M 2 1 C 1.448600769042969 1 1 1.506479263305664 1 2.129030227661133 L 1 30.87096977233887 C 1 31.49352073669434 1.448600769042969 32 2 32 L 59 32 C 59.55139923095703 32 60 31.49352073669434 60 30.87096977233887 L 60 2.129030227661133 C 60 1.506479263305664 59.55139923095703 1 59 1 L 2 1 M 2 0 L 59 0 C 60.10456848144531 0 61 0.9532012939453125 61 2.129030227661133 L 61 30.87096977233887 C 61 32.04679870605469 60.10456848144531 33 59 33 L 2 33 C 0.8954315185546875 33 0 32.04679870605469 0 30.87096977233887 L 0 2.129030227661133 C 0 0.9532012939453125 0.8954315185546875 0 2 0 Z" stroke="none" fill="#cbd5dc"/>
          </g>
        </g>
      </g>
    </g>
  </g>
</svg>
