<svg xmlns="http://www.w3.org/2000/svg" width="61" height="33" viewBox="0 0 61 33">
  <g id="Group_19928" data-name="Group 19928" transform="translate(-5384 8931)">
    <g id="Rectangle_9649" data-name="Rectangle 9649" transform="translate(5384 -8931)" fill="none" stroke="#cbd5dc" stroke-width="1" opacity="0.64">
      <rect width="61" height="33" rx="2" stroke="none"/>
      <rect x="0.5" y="0.5" width="60" height="32" rx="1.5" fill="none"/>
    </g>
    <g id="google-pay-primary-logo" transform="translate(5391 -8923.976)">
      <g id="Group_19807" data-name="Group 19807" transform="translate(19.464 1.12)">
        <path id="Path_6647" data-name="Path 6647" d="M1042.742,63.007v5.615H1040.9V54.753h4.882a4.491,4.491,0,0,1,3.161,1.2,3.925,3.925,0,0,1,0,5.871,4.477,4.477,0,0,1-3.161,1.18l-3.04,0Zm0-6.546V61.3h3.086a2.469,2.469,0,0,0,1.821-.717,2.31,2.31,0,0,0,.048-3.343c-.017-.016-.031-.032-.048-.046a2.441,2.441,0,0,0-1.821-.736Zm11.764,2.363a4.659,4.659,0,0,1,3.222,1.055,3.684,3.684,0,0,1,1.18,2.894v5.849h-1.76V67.3h-.079a3.545,3.545,0,0,1-3.042,1.627,4.029,4.029,0,0,1-2.71-.93,2.93,2.93,0,0,1-1.09-2.324,2.786,2.786,0,0,1,1.15-2.342,4.965,4.965,0,0,1,3.072-.871,5.6,5.6,0,0,1,2.7.58v-.408a2,2,0,0,0-.76-1.576,2.656,2.656,0,0,0-1.777-.649,2.847,2.847,0,0,0-2.441,1.259l-1.62-.988a4.557,4.557,0,0,1,3.957-1.857Zm-2.383,6.894a1.412,1.412,0,0,0,.61,1.162,2.3,2.3,0,0,0,1.43.465,2.991,2.991,0,0,0,2.071-.833,2.567,2.567,0,0,0,.914-1.956,3.849,3.849,0,0,0-2.4-.665,3.183,3.183,0,0,0-1.871.523,1.556,1.556,0,0,0-.754,1.3Zm16.89-6.585-6.145,13.673h-1.9l2.28-4.784-4.042-8.889h2l2.921,6.817h.04l2.842-6.817Z" transform="translate(-1040.9 -54.752)" fill="#5f6368"/>
      </g>
      <path id="Path_6648" data-name="Path 6648" d="M402.105,324.675a9.782,9.782,0,0,0-.142-1.675H394.2v3.17h4.445a3.807,3.807,0,0,1-1.643,2.5v2.059h2.654a8.045,8.045,0,0,0,2.449-6.055Z" transform="translate(-386.414 -316.613)" fill="#4285f4"/>
      <path id="Path_6649" data-name="Path 6649" d="M49.354,476.357a7.871,7.871,0,0,0,5.456-1.988l-2.654-2.059a4.992,4.992,0,0,1-7.423-2.61H42v2.121A8.229,8.229,0,0,0,49.354,476.357Z" transform="translate(-41.123 -460.362)" fill="#34a853"/>
      <path id="Path_6650" data-name="Path 6650" d="M3.61,222.472a4.932,4.932,0,0,1,0-3.151V217.2H.877a8.231,8.231,0,0,0,0,7.394Z" transform="translate(0 -212.907)" fill="#fbbc04"/>
      <path id="Path_6651" data-name="Path 6651" d="M49.354,3.236A4.471,4.471,0,0,1,52.511,4.47l2.351-2.349A7.919,7.919,0,0,0,49.354-.023,8.233,8.233,0,0,0,42,4.512l2.733,2.121A4.923,4.923,0,0,1,49.354,3.236Z" transform="translate(-41.123 0)" fill="#ea4335"/>
    </g>
  </g>
</svg>
