<svg xmlns="http://www.w3.org/2000/svg" width="23" height="20" viewBox="0 0 37.478 32.793"><defs><style>.a{fill:#013253;}.b,.c{stroke:none;}.c{fill:#013253;}</style></defs><g class="a" transform="translate(0.012 -31.967)"><path class="b" d="M33.828,34.209a10.01,10.01,0,0,0-13.659,1L18.727,36.69,17.285,35.2a10.009,10.009,0,0,0-13.659-1A10.51,10.51,0,0,0,2.9,49.427L17.065,64.051a2.3,2.3,0,0,0,3.316,0L34.545,49.427A10.5,10.5,0,0,0,33.828,34.209Z"/><path class="c" d="M 27.6903133392334 31.9668083190918 L 27.69033432006836 33.9668083190918 C 25.44276428222656 33.96682739257813 23.22481346130371 34.92529678344727 21.60427474975586 36.59737777709961 L 20.16229438781738 38.08328628540039 L 18.72702407836914 39.56228637695313 L 17.29174423217773 38.08327865600586 L 15.84749412536621 36.59500885009766 C 14.23194313049316 34.92474746704102 12.01505279541016 33.9668083190918 9.765243530273438 33.9668083190918 C 7.952463150024414 33.9668083190918 6.278293609619141 34.57695770263672 4.924903869628906 35.73028564453125 C 3.150112152099609 37.24507904052734 2.110523223876953 39.38051605224609 1.997623443603516 41.74321746826172 C 1.885581970214844 44.08809661865234 2.739124298095703 46.38178634643555 4.338554382324219 48.03528594970703 L 18.50177383422852 62.65963745117188 C 18.5660343170166 62.72595596313477 18.64059448242188 62.75958633422852 18.72337341308594 62.75958633422852 C 18.80615425109863 62.75958633422852 18.88071441650391 62.72595596313477 18.94460296630859 62.66002655029297 L 33.10859298706055 48.03487777709961 C 34.71110534667969 46.38113784790039 35.56653213500977 44.08805847167969 35.4555549621582 41.74361801147461 C 35.34371185302734 39.38107681274414 34.3044319152832 37.24550628662109 32.53031158447266 35.73128890991211 C 31.17595291137695 34.57710647583008 29.50255393981934 33.96696853637695 27.69104385375977 33.9668083190918 L 27.6903133392334 31.9668083190918 M 9.765243530273438 31.96680450439453 C 12.49426078796387 31.96680450439453 15.24417495727539 33.09454345703125 17.28505325317383 35.20453643798828 L 18.72702407836914 36.69044876098633 L 20.16900444030762 35.20453643798828 C 22.21417999267578 33.09431076049805 24.96312141418457 31.96655654907227 27.69122695922852 31.96680450439453 C 29.87437057495117 31.96700286865234 32.04449462890625 32.68955612182617 33.82754516601563 34.20904922485352 C 38.4243049621582 38.13240814208984 38.66586303710938 45.1739387512207 34.54488372802734 49.42666625976563 L 20.38128280639648 64.05140686035156 C 19.92380332946777 64.52352905273438 19.32358932495117 64.75959014892578 18.72337341308594 64.75959014892578 C 18.12315940856934 64.75959014892578 17.5229434967041 64.52352905273438 17.06546401977539 64.05140686035156 L 2.901874542236328 49.42666625976563 C -1.211795806884766 45.1739387512207 -0.970245361328125 38.13240814208984 3.626514434814453 34.20904922485352 C 5.409809112548828 32.68935012817383 7.580831527709961 31.96680450439453 9.765243530273438 31.96680450439453 Z"/></g></svg>