<svg xmlns="http://www.w3.org/2000/svg" width="150.891" height="50.518" viewBox="0 0 150.891 50.518">
  <g id="Group_467" data-name="Group 467" transform="translate(0 0)">
    <g id="Group_464" data-name="Group 464" transform="translate(47.44 12.311)">
      <path id="Path_433" data-name="Path 433" d="M182.42,243.92q.658.044,1.426.067t2.308.022q.852,0,2.763-.046t2.988-.044q5.572,0,8.724,2.93a10.538,10.538,0,0,1,3.152,8.118q0,5.248-2.988,8.088t-8.515,2.839q-.926,0-2.867-.06t-2.942-.059q-1.061,0-2.061.031t-1.987.089v-1.2a3.237,3.237,0,0,0,2.1-.447,3.318,3.318,0,0,0,.44-2.13V247.7a3.245,3.245,0,0,0-.44-2.121,3.472,3.472,0,0,0-2.1-.447Zm6.423,1.206v19.539H191a16.9,16.9,0,0,0,3.039-.209,5.646,5.646,0,0,0,1.875-.7,6.307,6.307,0,0,0,2.667-3.274,15.428,15.428,0,0,0,.893-5.636q0-5.2-2.023-7.46t-6.827-2.258Z" transform="translate(-182.42 -243.893)" fill="#013253"/>
      <path id="Path_434" data-name="Path 434" d="M241.23,264.617c0-.782-.13-1.266-.389-1.465a4.356,4.356,0,0,0-2.091-.314v-1.076q1.464-.045,2.9-.156t2.824-.307v3.931a7.815,7.815,0,0,1,1.786-2.9,3.286,3.286,0,0,1,2.308-1.024,2.69,2.69,0,0,1,1.942.687,2.414,2.414,0,0,1,.717,1.826,1.97,1.97,0,0,1-.432,1.34,1.445,1.445,0,0,1-1.15.5,1.615,1.615,0,0,1-1.228-.447,1.84,1.84,0,0,1-.427-1.315,2.856,2.856,0,0,1,.1-.74,4.155,4.155,0,0,1,.276-.739h-.03q-1.465,0-2.568,2a9.783,9.783,0,0,0-1.105,4.8v3.977q0,1.332.5,1.682a6.811,6.811,0,0,0,2.83.412v1.031q-1.837-.075-3.04-.112t-2.068-.037q-.4,0-1.2.03t-2.9.119v-1.031a4.846,4.846,0,0,0,2.09-.447q.36-.3.358-1.644Z" transform="translate(-216.169 -254.306)" fill="#013253"/>
      <path id="Path_435" data-name="Path 435" d="M269.267,288.9a1.752,1.752,0,0,1,1.352.558,2.121,2.121,0,0,1,.515,1.489,2.168,2.168,0,0,1-.515,1.5,1.731,1.731,0,0,1-1.352.576,1.777,1.777,0,0,1-1.367-.576,2.13,2.13,0,0,1-.53-1.5,2.066,2.066,0,0,1,.537-1.473,1.775,1.775,0,0,1,1.36-.575Z" transform="translate(-233.317 -270.84)" fill="#013253"/>
      <path id="Path_436" data-name="Path 436" d="M285.206,243.923q.956.044,1.9.067t1.868.022q1.779,0,3.652-.046t1.978-.044a9.947,9.947,0,0,1,5.736,1.323,4.682,4.682,0,0,1,1.852,4.089,4.885,4.885,0,0,1-1.452,3.73,6.588,6.588,0,0,1-4.183,1.563v.089a8.125,8.125,0,0,1,4.877,1.613,4.926,4.926,0,0,1,1.665,3.961,4.736,4.736,0,0,1-2.039,4.262q-2.039,1.34-6.519,1.34-1.116,0-2.875-.045t-2.383-.045q-.911,0-1.942.021t-2.121.067l-.015-1.2a3.238,3.238,0,0,0,2.1-.447,3.321,3.321,0,0,0,.441-2.13V247.405c0-1.025-.155-1.655-.463-1.884a4.211,4.211,0,0,0-2.077-.389Zm6.392,1.256v8.864h2.27A4.773,4.773,0,0,0,297.319,253a6.172,6.172,0,0,0,.022-6.84,5.554,5.554,0,0,0-3.816-.986Zm0,10.091v9.372h2.033a6.383,6.383,0,0,0,4.159-1.038,4.526,4.526,0,0,0,1.187-3.552,4.721,4.721,0,0,0-1.239-3.678,6.263,6.263,0,0,0-4.183-1.105Z" transform="translate(-244.004 -243.896)" fill="#013253"/>
      <path id="Path_437" data-name="Path 437" d="M338.226,268.476a8.123,8.123,0,0,0,1.228,4.813,4.089,4.089,0,0,0,3.509,1.645,4.887,4.887,0,0,0,2.817-.807,4.963,4.963,0,0,0,1.8-2.345l.866.27a6.03,6.03,0,0,1-2.345,3.385,7.473,7.473,0,0,1-4.3,1.143,7.018,7.018,0,0,1-5.318-2.01,8.884,8.884,0,0,1,.083-11.152,6.966,6.966,0,0,1,5.3-2.116,6.4,6.4,0,0,1,4.825,1.824,6.9,6.9,0,0,1,1.762,5.008v.223Zm-.014-1.047,7.11-.179a6.3,6.3,0,0,0-.874-3.625,2.9,2.9,0,0,0-2.531-1.248,3.107,3.107,0,0,0-2.622,1.34,6.565,6.565,0,0,0-1.084,3.713Z" transform="translate(-273.567 -254.306)" fill="#013253"/>
      <path id="Path_438" data-name="Path 438" d="M373.437,264.617c0-.782-.13-1.266-.389-1.465a4.355,4.355,0,0,0-2.091-.314v-1.076q1.464-.045,2.9-.156t2.824-.307v3.931a7.816,7.816,0,0,1,1.786-2.9,3.283,3.283,0,0,1,2.307-1.024,2.69,2.69,0,0,1,1.943.687,2.412,2.412,0,0,1,.717,1.826,1.971,1.971,0,0,1-.432,1.34,1.444,1.444,0,0,1-1.15.5,1.62,1.62,0,0,1-1.228-.447,1.841,1.841,0,0,1-.426-1.315,2.889,2.889,0,0,1,.1-.74,4.257,4.257,0,0,1,.277-.739h-.03q-1.464,0-2.568,2a9.782,9.782,0,0,0-1.105,4.8v3.977q0,1.332.5,1.682a6.811,6.811,0,0,0,2.83.412v1.031q-1.836-.075-3.039-.112t-2.069-.037q-.4,0-1.195.03t-2.9.119v-1.031a4.844,4.844,0,0,0,2.09-.447q.359-.3.358-1.644Z" transform="translate(-295.38 -254.306)" fill="#013253"/>
      <path id="Path_439" data-name="Path 439" d="M413.935,262.362a5.686,5.686,0,0,1,1.451-1.316,3.125,3.125,0,0,1,1.523-.344,1.942,1.942,0,0,1,1.069.217.885.885,0,0,1,.306.77,1.041,1.041,0,0,1-.261.77,1.018,1.018,0,0,1-.754.261,2.336,2.336,0,0,1-.94-.223,2.363,2.363,0,0,0-.643-.223,1.048,1.048,0,0,0-.567.194,1.654,1.654,0,0,0-.508.538,4.36,4.36,0,0,1,.792,1.382,5.011,5.011,0,0,1,.255,1.637,4.672,4.672,0,0,1-1.523,3.738,6.437,6.437,0,0,1-4.332,1.316c-.079,0-.284,0-.612-.014s-.613-.016-.852-.016a2.474,2.474,0,0,0-1.33.291.976.976,0,0,0-.447.874q0,1.466,4.66,1.645l.852.045a9.647,9.647,0,0,1,4.592,1,3,3,0,0,1,1.4,2.734,4.392,4.392,0,0,1-2.284,3.774,10.664,10.664,0,0,1-5.918,1.487,9.426,9.426,0,0,1-4.653-1,2.975,2.975,0,0,1-1.77-2.617,2.874,2.874,0,0,1,.694-1.914,4.434,4.434,0,0,1,2.01-1.271,2.932,2.932,0,0,1-1.359-1.031,2.874,2.874,0,0,1,.223-3.386,4.131,4.131,0,0,1,1.927-1.187,4.283,4.283,0,0,1-2.322-1.547,4.387,4.387,0,0,1-.828-2.7,4.86,4.86,0,0,1,1.636-3.8,6.147,6.147,0,0,1,4.264-1.466,7.845,7.845,0,0,1,2.427.352A5,5,0,0,1,413.935,262.362Zm-7.006,14.321a2.768,2.768,0,0,0-1.269.912,2.205,2.205,0,0,0-.447,1.36,2.35,2.35,0,0,0,1.255,2.116,6.879,6.879,0,0,0,3.525.755,8.087,8.087,0,0,0,3.951-.844,2.471,2.471,0,0,0,1.517-2.147q0-1.6-4.436-1.838-2.513-.134-4.1-.314Zm2.778-14.666a2.417,2.417,0,0,0-2.114.979,5.156,5.156,0,0,0-.694,2.967,5.359,5.359,0,0,0,.688,3.035,2.4,2.4,0,0,0,2.121.988,2.457,2.457,0,0,0,2.144-.995,6.649,6.649,0,0,0,0-5.979,2.456,2.456,0,0,0-2.145-.995Z" transform="translate(-314.838 -253.948)" fill="#013253"/>
    </g>
    <g id="Group_466" data-name="Group 466">
      <path id="Path_440" data-name="Path 440" d="M894.251,156.073l2.81-1.355,3.527-1.7,3.654-3.355,2.088-2.721,1.529-1.492-.186-3.989-1.451-3.58-1.684-2.945-1.207-4.966-.8-3.609s-1.89-5.325,1.027-7.9,6.459-5,12.237-3.545,5.555,2.274,5.555,2.274l2.791,1.379,1.6,2.386v3.28l-.3,2.829.257,2.638-.447,1.876.485.352.358,1.661s-.582,1.715-.62,1.865-.858,1.722-.858,1.722l-.6,1.037-1.054,3.573-.621,1.5.725,2.642s1.219,1.269,1.451,1.536a23.958,23.958,0,0,1,.986,3.055l1.938,1.563v2.423l.485,4.324-.521,3.238h-1.044l-2.456-2.791-3.28-.858-2.311.969-2.791,4.772-.782-.261-.251-2.163-1.725-1.417a12.45,12.45,0,0,0-1.675-.162c-.261.05-3.28-.621-3.43-.472s-3.207,1.865-3.393,1.938-1.451.6-1.451.6a9.018,9.018,0,0,1-.485-1.156c0-.15-.223-2.5-.223-2.5s-.037-.932-.037-1.044-.075-1.128-.075-1.128l-.738-.933.59-.811-.186-.708-.523-.261Z" transform="translate(-893.234 -114.379)" fill="#fff"/>
      <path id="Path_441" data-name="Path 441" d="M935.656,157.955c1.038.181,2.9-6.611,4.317-10.113-.922-1.638-.566-2.806-1.135-3.276a1.138,1.138,0,0,1-.009-1.82c.608-.431.684-1.594,1.157-3-.351-.146-1,.007-1.1-.325-.526-1.917.429-5.746.18-7.369a.5.5,0,0,0,.057-.76,10.73,10.73,0,0,1-1.452-1.253c-.425-.485,1.574-1.048,1.657-1.66.019-.142-1.969-.315-1.943-.456,2.5-.518-.194-.491,0-.518,2.26-.3,1.228-1.153,1.358-1.9.073-.422-.642-.692.695-1.28.335-.147-.539-.482-.811-.727h0a1.212,1.212,0,0,0-.1-.081.436.436,0,0,0-.185-.077c5.288-5.095-6.566-2.882-6.714-2.856.112-.055,1.715-1.468.653-1.117a6.935,6.935,0,0,0-1.4.641c-5.524,3.336-2.9,13.35-1.11,20.792,1.271,1.207,3.085,5.6,4.251,8.374.179.424-.732-.007-1.687.579-.982.6-1.6.837-2.8,3.3a25.594,25.594,0,0,0-2.1,12.784c.065.917,5.471-4.677,12.542-.661C941,165.769,935.548,157.936,935.656,157.955Z" transform="translate(-918.05 -118.01)" fill="#0c3353" opacity="0"/>
      <g id="Group_465" data-name="Group 465">
        <path id="Path_442" data-name="Path 442" d="M967.444,218.482c-1.07-.022-2.276.046-2.821-.022a5.817,5.817,0,0,1-1.274-.342c-.386-.112.386.75.7,1a2.641,2.641,0,0,0,2,.728,3.007,3.007,0,0,0,2.568-.8C969.424,218.346,968.514,218.5,967.444,218.482Z" transform="translate(-944.959 -192.072)" fill="#0c3353"/>
        <path id="Path_443" data-name="Path 443" d="M944.285,171.831c-.706,0-.592.223-.592.223a9.285,9.285,0,0,0,3.868-.342c1.684-.636,1.41-2.366,1.546-2.821.136-.432-.09-1.07-.66-.887s-.864-.136-3-.136a4.062,4.062,0,0,0-3.14,1.274.907.907,0,0,0-.136.956c.068.2-.16.774-.046.75.318-.09,1.32-1.478,2.934-1.66a3.787,3.787,0,0,1,2.184.16,6.327,6.327,0,0,0-2.457.364,4.176,4.176,0,0,0-2.276,2.048c-.046.2.223.274.5.223.272-.068.592-.66.682-.66a5.262,5.262,0,0,0,1.3-.136,12.258,12.258,0,0,1,2.568-.112s-.568.136-1.117.318a8.671,8.671,0,0,1-2.154.438Z" transform="translate(-929.1 -154.411)" fill="#0c3353"/>
        <path id="Path_444" data-name="Path 444" d="M980.881,167.708a5.776,5.776,0,0,1,2.32-.182c.182.022.456.068.75.09h.023c.774.092,1.546.864,1.82.842.274-.046.136-.41.136-.41a2.662,2.662,0,0,0-.706-1.228,2.574,2.574,0,0,0-1.434-.3c-.2,0-.386.022-.592.022a3.47,3.47,0,0,1-.706-.022,5.9,5.9,0,0,0-2.047-.046c-1.252.2-.82,2.16-.82,2.16a.8.8,0,0,0,.546.956c.456.136-.045.592.456,1,.524.432,3.573.2,3.573.2a3.112,3.112,0,0,0-.637-.524,7.188,7.188,0,0,0-1.616-.182,7.151,7.151,0,0,1-1.16-.274,2.233,2.233,0,0,1,.592-.022,5.136,5.136,0,0,0,1.956-.068.949.949,0,0,0,.5-.524,4.032,4.032,0,0,1,.8.478,2.541,2.541,0,0,0,1.138.546c.136-.046-.09-.478-.637-.956a4.754,4.754,0,0,0-2.3-1.34,7.348,7.348,0,0,0-2.5.478.894.894,0,0,1,.547-.709Z" transform="translate(-957.19 -153.312)" fill="#0c3353"/>
        <path id="Path_445" data-name="Path 445" d="M932.735,193c-.825-1.483-2.885-1.5-4.3-2.139a30.433,30.433,0,0,1-5.136-2.476c-1.3-.806-.782-3.044-2.28-3.506.577,1.829.813,3.737,1.321,5.583.83.188.516-1.663,1.005-1.207a3.047,3.047,0,0,1,.782,1.6c.378,1.923,1.116,13.161-1.443,7.041-1.686-3.954-6.105-6.2-8.307-1.286-.485,1.473-.729,1.752-1.805,4.509,1.277-5.178,1.882-8,4.6-8.333,4.435-1.34,2.752-5.07,2.961-8.84l-.573-3.593.046-.112a19.662,19.662,0,0,0,1.592-4.164l.16-.592c.432.223.524.112.682-.068a11.224,11.224,0,0,1,.546-1.524,6.29,6.29,0,0,0,.706-2.68c0-.524,0-.82.022-1.434.022-.478-.112-.978-.774-.818l.068-.546c.051-.526.112-1.086.146-1.644a6.381,6.381,0,0,1-2.288-2c.3,1.075,1.239,2.825,1.162,3.055-.274.638.112.956-.136,1.592-.092.182.022.41.272.318.3-.022.864.022.842.478,0,.387.2.66.223,1.024a2.1,2.1,0,0,1-.022.364c-.112-.386-.706-1.274-.91-1.092a10.446,10.446,0,0,0,.022,1.434,5.136,5.136,0,0,1-1.228,3.412,13.152,13.152,0,0,1-1.388,4.561,3.457,3.457,0,0,1-.821,1.089,1.921,1.921,0,0,1-1.32.386c-.136.022-1.951,2.372-4.17,1.563-.948-.345-1,.15-2.361.223-1.616.068-2.9-1.587-3.238-2.929-.3-1.228-.851-1.274-1.419-2.094-.546-.818.524-2.094.524-2.094a1.933,1.933,0,0,0,.09,1.024c.223.478.8.387,1.07.364a1.6,1.6,0,0,1,.728.136,10.446,10.446,0,0,0,1.66.046c.068-.022.092-.274.41-.41.092-.022.182-.046.318-.092a18.332,18.332,0,0,1,3.526-.16.241.241,0,0,1,.2.223.948.948,0,0,1,.091.223c.136.022.592,0,.774,0,.2,0,.182-.2.318-.223a.67.67,0,0,1,.5.223.488.488,0,0,0,.112.09,2.859,2.859,0,0,1,.728,1.183c.318.978.318,1.524.454,1.41a6.254,6.254,0,0,0,.092-2.5c-.182-.978-.342-.842-.728-1.706-.136-.318.25-.432.432-.364.16.046.614.342.932.068a1.451,1.451,0,0,0-.2-2.162,6.116,6.116,0,0,0-2.568-1.182c-.318-.112-1.07-.546-1.274-.638-.2-.068-.136.068-.136.068a1.73,1.73,0,0,1,.182.454,2.3,2.3,0,0,1,.068.592v.022a1.193,1.193,0,0,0,.046.41c.068.022.364-.274.682.022a3.184,3.184,0,0,1,.66,2.526c.022.5-.092.592-.888.614-.706.022-.5-.092-.614-.2s-.66-.068-.956-.068-.364-.068-.364-.318c-.022-.223-.253-.375-.253-.807a5.419,5.419,0,0,1,.117-.967,6.053,6.053,0,0,0,.614-.092,1.117,1.117,0,0,0,.66-.318c.112-.112-.2-.432-.978-.3-.478.068-.643.447-.849.558a.883.883,0,0,1-1.211,0,1.674,1.674,0,0,0-1.21-.4c-.41,0-.656.412-.807.2a1.833,1.833,0,0,1,.21-2.019,4.487,4.487,0,0,0-2.048.888,4.841,4.841,0,0,1-4.272,1.017c-.682-1.138-.714-.874-.872-2.233-.068-.592-.52-1.235-.362-1.8a13.6,13.6,0,0,0,.615-3.489c-.756.413-1.535.792-2.273,1.228a12.65,12.65,0,0,1,.248,1.872c-.5.09-.592.112-.568.614.046.66.432,1.34.478,2.162a6.447,6.447,0,0,0,.706,2.526,16.35,16.35,0,0,0,.956,2c.25.342.5.3.864.272a19.32,19.32,0,0,0,1.152,3.151l.4.453v3.381c-.059.59-.837.627-1.211,1.412a22.907,22.907,0,0,0,1.395,6.641c3.852,4.054,6.128,2.8,7.527,7.551-2.553-3.919-3.755-2.366-6.8-4-2.281-.765-3.619,3.226-5.295,4.223a48.689,48.689,0,0,1,.037-6.171,19.591,19.591,0,0,1,1.21-3.97c.006.21.98,1.444.919.607a12.506,12.506,0,0,1,.079-2.627,2.734,2.734,0,0,0,.059-.386v-.019h0c0-.059.011-.117.013-.18.016-.67-.926.15-.947.3-.257.635-1.3.9-1.853,1.029-.311.07-.438.472-.41.821-.519.169-1.1.387-1.184.419-2.953,1.134-5.045,3.229-7.466,4.641.4,1.211,4.346-.907,6.32-1.583.458-.157,1.379-.693,1.675-.025a1.579,1.579,0,0,1,.028.852,14.39,14.39,0,0,0,.509,6.287,2.378,2.378,0,0,0,.44.893c1.2,1.34,3.517-.893,4.535-1.534a3.35,3.35,0,0,1,2.345-.612,4.243,4.243,0,0,1,1.291.569c1.2.7,2.568-.282,3.442.8.277.343.381,2.427.708,2.722,1.34,1.2,2.623-1.459,3.356-2.43a9.762,9.762,0,0,1,2.168-2.438,2.331,2.331,0,0,1,2.464-.034,8.778,8.778,0,0,1,1.754,1.237c.526.447,1.467,1.812,2.082,1.983,2.07.574,1.969-3.823,1.828-5.286.223-.94-1.245-4.974.194-4.633.372.112.741.245,1.111.381,1.417.52,2.821,1.15,4.267,1.623C931.274,192.878,933.008,194.248,932.735,193Zm-24.422-19.038c.068-.16.342-.274.342-.274s.75,1.07,1.024,1.388.774.8.774.8a5.146,5.146,0,0,0-.888.16c-.273.068-1.046.092-1.228-.456-.2-.524.091-.682.16-.978C908.587,174.329,908.267,174.123,908.313,173.959Zm3.931,19.47a4.943,4.943,0,0,0-2.143-3.036c-.485-.318,1.675-.208,1.949-1.316.2-.807-1-.4-.605-2.624a10.535,10.535,0,0,1,1.6-1c.348-.188.422-1.017.818-1.21,1.592-.782,3.986-1.2,5.15-2.367.365-.7.721,5.106-.436,6.636-.519.686-.431,1.675-.909,2.405a.909.909,0,0,1-.65.466,4.912,4.912,0,0,0-2,.749,8.029,8.029,0,0,0-1.8,1.527c-.173.2-.361.5-.653.439s-.266-.418-.323-.658Z" transform="translate(-890.241 -152.083)" fill="#0c3353"/>
        <path id="Path_446" data-name="Path 446" d="M926.661,128.006a1.411,1.411,0,0,1,1.117-.52c.089-.851.032-1.373-.382-1.2-1.408,1.735.2-.256.057-1.072-.607.37-.725-.076-.544-.828a4.586,4.586,0,0,0,.774-1.9c.6-1.1,1.419-2.121,2.149-2.245,2.233.323,4.509-.629,6.775-.193,1.4-1.513,3.293-.893,5.087-1.507,4.206-2.414,8.384,3.306,1.508.238-.295-.275-1.5-.4-.9.213,2.9,1.041,3.562,3.8,5.189,6.063-3.3-2.294.558,2.976.67,2.413-.28-3.04,1.452-6.5-.821-8.839-.979-1.1-2.606-.955-3.367-2.24-1.681-1.7-4.217-1.881-6.485-2.121a6.269,6.269,0,0,1-1.081-.185c-.186-.057-.223.335-.06.387a7.149,7.149,0,0,0,1.18.2c-.06.112-.025.329.112.335a10.271,10.271,0,0,1,1.4.218c1.426.7,2.9,1.479,2,1.372-1.621-.276-2.02.711-3.992-.145-.719.217-.089.911.164,1.257-1.424.538-3.71-1-5.444-.432-.912.007-4.337.72-2.393,1.487a4.6,4.6,0,0,0-.5.082,1.526,1.526,0,0,0-1.117.847,7.3,7.3,0,0,0-2.26,2.456,5.675,5.675,0,0,1,.831-3.141c.495-.481,1.38-1.257,1.215-1.973a.138.138,0,0,1-.042-.07.344.344,0,0,0-.012-.054h0l-.007-.015-.013-.023h0c-.011-.011-.011-.012,0-.007l-.021-.022h0l-.085.042a.085.085,0,0,0-.04.047,9.483,9.483,0,0,0-2.854,3.622c-.919,2.867.519,5.551.9,8.537a4.967,4.967,0,0,0,1.292-1.08Z" transform="translate(-915.638 -114.073)" fill="#0c3353"/>
      </g>
    </g>
  </g>
</svg>
