<?xml version="1.0" encoding="UTF-8"?>
<!--Icons from directory ""-->
<svg xmlns="http://www.w3.org/2000/svg" width="196" height="363" viewBox="0 0 196 363"><svg width="45" height="32" id="Component1" y="0"><path d="M44.675 6.602s-.378-3.135-1.742-4.514A6.085 6.085 0 0 0 38.41.324C32.042-.136 22.524.029 22.524.029h-.019s-9.55-.165-15.916.295a6.33 6.33 0 0 0-4.56 1.846C.666 3.549.337 6.643.337 6.643S0 10.283 0 13.965v3.451c0 3.685.337 7.365.337 7.365s.387 3.134 1.751 4.515c1.73 1.812 3.975 1.757 4.986 1.946 3.642.348 15.456.457 15.456.457s9.552-.013 15.921-.473a6.527 6.527 0 0 0 4.556-1.93c1.36-1.381 1.674-4.515 1.674-4.515s.319-3.68.319-7.365v-3.451c0-3.682-.325-7.363-.325-7.363zm-26.857 15V8.82l12.3 6.414z" fill="#013253"/></svg><svg width="32" height="32" id="Component2" y="32"><path d="M0 16a16 16 0 0 0 9.576 14.653 14.132 14.132 0 0 1 .28-3.674c.308-1.3 2.058-8.717 2.058-8.717a6.156 6.156 0 0 1-.51-2.532c0-2.37 1.373-4.141 3.084-4.141a2.144 2.144 0 0 1 2.161 2.4c0 1.463-.934 3.65-1.414 5.678a2.476 2.476 0 0 0 2.525 3.081c3.031 0 5.072-3.893 5.072-8.506 0-3.507-2.361-6.132-6.656-6.132a7.576 7.576 0 0 0-7.877 7.663 4.624 4.624 0 0 0 1.055 3.138.778.778 0 0 1 .23.891c-.076.295-.254 1-.326 1.285a.551.551 0 0 1-.8.4c-2.234-.912-3.277-3.36-3.277-6.112 0-4.545 3.834-9.994 11.435-9.994 6.108 0 10.129 4.42 10.129 9.165 0 6.277-3.49 10.965-8.633 10.965a4.587 4.587 0 0 1-3.908-1.994s-.929 3.686-1.127 4.4a13.4 13.4 0 0 1-1.61 3.426A16 16 0 1 0 0 16z" fill="#013253"/></svg><svg width="32" height="32" id="Component3" y="64"><path d="M29 0H3a3 3 0 0 0-3 3v26a3 3 0 0 0 3 3h14V20h-5v-5h5v-3.991c0-4.212 2.556-6.506 6.243-6.506 1.766 0 2.757.134 3.757.194v4.4h-2.582c-2 0-2.418.97-2.418 2.4V15h4.414l-.623 5H22v12h7a3 3 0 0 0 3-3V3a3 3 0 0 0-3-3z" fill="#013253"/></svg><svg width="45" height="32" id="Component4" y="96"><path d="M44.675 6.602s-.378-3.135-1.742-4.514A6.085 6.085 0 0 0 38.41.324C32.042-.136 22.524.029 22.524.029h-.019s-9.55-.165-15.916.295a6.33 6.33 0 0 0-4.56 1.846C.666 3.549.337 6.643.337 6.643S0 10.283 0 13.965v3.451c0 3.685.337 7.365.337 7.365s.387 3.134 1.751 4.515c1.73 1.812 3.975 1.757 4.986 1.946 3.642.348 15.456.457 15.456.457s9.552-.013 15.921-.473a6.527 6.527 0 0 0 4.556-1.93c1.36-1.381 1.674-4.515 1.674-4.515s.319-3.68.319-7.365v-3.451c0-3.682-.325-7.363-.325-7.363zm-26.857 15V8.82l12.3 6.414z" fill="#c00"/></svg><svg width="32" height="32" id="Component5" y="128"><path d="M0 16a16 16 0 0 0 9.576 14.654 14.126 14.126 0 0 1 .28-3.674c.308-1.3 2.058-8.718 2.058-8.718a6.153 6.153 0 0 1-.51-2.531c0-2.371 1.373-4.142 3.084-4.142a2.144 2.144 0 0 1 2.161 2.4c0 1.463-.934 3.651-1.414 5.678a2.476 2.476 0 0 0 2.525 3.082c3.031 0 5.072-3.894 5.072-8.507 0-3.507-2.361-6.131-6.656-6.131a7.576 7.576 0 0 0-7.877 7.662 4.622 4.622 0 0 0 1.055 3.138.78.78 0 0 1 .23.892c-.076.294-.254 1-.326 1.284a.551.551 0 0 1-.8.4c-2.234-.912-3.277-3.36-3.277-6.111 0-4.546 3.834-9.995 11.435-9.995 6.108 0 10.129 4.421 10.129 9.165 0 6.277-3.49 10.966-8.633 10.966a4.588 4.588 0 0 1-3.908-1.995s-.929 3.687-1.127 4.4a13.421 13.421 0 0 1-1.61 3.427A16 16 0 1 0 0 16z" fill="#cb1f27"/></svg><svg width="32" height="32" id="Component6" y="160"><path d="M29 0H3a3 3 0 0 0-3 3v26a3 3 0 0 0 3 3h14V20h-5v-5h5v-3.991c0-4.212 2.556-6.506 6.243-6.506 1.766 0 2.757.134 3.757.194v4.4h-2.582c-2 0-2.418.97-2.418 2.4V15h4.414l-.623 5H22v12h7a3 3 0 0 0 3-3V3a3 3 0 0 0-3-3z" fill="#395185"/></svg><svg width="39" height="38" id="icon-a_plus" y="192"><rect width="39.42" height="38.061" rx="5" fill="#005a78"/><text transform="translate(6.797 25.797)" fill="#fff" font-size="20" font-family="Roboto, sans-serif" font-weight="700"><tspan x="0" y="0">A+</tspan></text></svg><svg width="196" height="69" id="icon-bbb" y="230"><defs><style>.a,.b{fill:#015a75}.b{fill-rule:evenodd}.c{fill:#fff}</style></defs><path class="a" d="M181.664 59.575V9.004a8.3 8.3 0 0 0-8.3-8.3H62.607v67.172h110.756a8.3 8.3 0 0 0 8.3-8.3"/><path class="a" d="M173.362 68.58H61.906V0h111.456a9.015 9.015 0 0 1 9 9v50.57a9.015 9.015 0 0 1-9 9m-110.05-1.407h110.05a7.606 7.606 0 0 0 7.6-7.6V9a7.606 7.606 0 0 0-7.6-7.6H63.313z"/><path class="b" d="M27.427 22.669l-2.9 4c-1.452 2-1 5.544.98 6.975l5.371 3.876c.922.666.994 1.332.557 2.027l.781.581 2.72-3.767a5.1 5.1 0 0 0-.959-7.31l-5.415-3.952a1.352 1.352 0 0 1-.357-1.865l-.781-.557M32.074 5.033l-4.51 6.237a7.742 7.742 0 0 0 1.544 10.043l7.414 5.443c1.5 1.1 1.7 3.914.6 5.352l.629.472 5.115-7.193a7.571 7.571 0 0 0-1.444-10.625l-7.931-5.763a2.41 2.41 0 0 1-.741-3.485l-.682-.482M20.189 44.15h5.976l1.066 3.623h9.767l1.066-3.623h5.978l-.783-2.664H20.972l-.783 2.664M22.989 56.272a3.089 3.089 0 0 0 1.694-2.757c0-2.475-2.027-3.485-4.241-3.485h-6.181v13.142h6.127c2.616 0 5.387-1.143 4.939-4.153-.266-1.724-.948-2.131-2.336-2.749m-5.941-3.73h3.218a1.401 1.401 0 1 1 .125 2.8H17.05zm3.589 8.144H17.05v-3h3.589c2.635.008 2.472 3.005 0 3.005zM35.26 56.272a3.089 3.089 0 0 0 1.694-2.757c0-2.475-2.027-3.485-4.241-3.485h-6.181v13.142h6.127c2.614 0 5.387-1.143 4.939-4.153-.266-1.724-.948-2.131-2.336-2.749m-5.93-3.73h3.21a1.401 1.401 0 1 1 .125 2.8h-3.338zm3.581 8.147H29.33v-2.994h3.581c2.632 0 2.472 3 0 3zM49.867 59.021c-.266-1.724-.948-2.131-2.336-2.749a3.089 3.089 0 0 0 1.694-2.757c0-2.475-2.027-3.485-4.241-3.485h-6.181v13.142h6.127c2.614 0 5.387-1.143 4.939-4.153m-8.259-6.476h3.2a1.401 1.401 0 1 1 .125 2.8H41.6zm3.581 8.147H41.6v-3h3.581c2.632 0 2.472 3 0 3z"/><path class="c" d="M80.051 31.538l-.6-1.654H75.26l-.615 1.654h-2.373l3.78-9.772h2.608l3.764 9.772zm-2.693-7.694l-1.524 4.2h3.048zM82.969 26.657a4.971 4.971 0 0 1 5.2-5.062 4.473 4.473 0 0 1 4.087 2.4l-1.788.879a2.648 2.648 0 0 0-2.286-1.428 3.2 3.2 0 0 0 0 6.394 2.619 2.619 0 0 0 2.3-1.42l1.777.887a4.5 4.5 0 0 1-4.087 2.4 4.965 4.965 0 0 1-5.203-5.05zM93.138 26.657a4.971 4.971 0 0 1 5.2-5.062 4.473 4.473 0 0 1 4.087 2.4l-1.788.879a2.648 2.648 0 0 0-2.3-1.428 3.2 3.2 0 0 0 0 6.394 2.619 2.619 0 0 0 2.3-1.42l1.788.863a4.5 4.5 0 0 1-4.087 2.4 4.925 4.925 0 0 1-5.2-5.026zM109.299 31.538l-1.918-3.463h-1.524v3.463h-2.081v-9.772h4.57a3.043 3.043 0 0 1 3.282 3.149 2.8 2.8 0 0 1-2.131 2.9l2.2 3.73zm.2-6.623a1.326 1.326 0 0 0-1.465-1.319h-2.188v2.637h2.182a1.322 1.322 0 0 0 1.468-1.318zM113.3 31.538v-9.772h6.927v1.83h-4.846v2.065h4.732v1.83h-4.732v2.211h4.839v1.83zM121.945 31.538v-9.772h3.852c3.061 0 5.187 1.947 5.187 4.894s-2.131 4.878-5.187 4.878zm6.927-4.878a2.864 2.864 0 0 0-3.061-3.061h-1.772v6.106h1.776a2.922 2.922 0 0 0 3.05-3.048zM132.57 31.538v-9.772h2.081v9.772zM138.943 31.538v-7.942h-2.859v-1.83h7.8v1.83h-2.843v7.942zM145.315 31.538v-9.772h6.927v1.83h-4.846v2.065h4.726v1.83h-4.726v2.211h4.835v1.83zM153.96 31.538v-9.772h3.852c3.061 0 5.187 1.947 5.187 4.894s-2.131 4.878-5.187 4.878zm6.927-4.878a2.864 2.864 0 0 0-3.061-3.061h-1.772v6.106h1.772a2.921 2.921 0 0 0 3.05-3.048zM73.314 48.322V38.55h5.142a2.525 2.525 0 0 1 2.813 2.491 2.169 2.169 0 0 1-1.684 2.241 2.358 2.358 0 0 1 1.865 2.4 2.573 2.573 0 0 1-2.843 2.637zm5.832-6.927a1.066 1.066 0 0 0-1.143-1.066h-2.608v2.131h2.608a1.04 1.04 0 0 0 1.14-1.055zm.189 4a1.142 1.142 0 0 0-1.26-1.143h-2.68v2.27h2.68a1.108 1.108 0 0 0 1.26-1.131zM83.121 44.424V38.55h2.131v5.8a2.293 2.293 0 1 0 4.585 0v-5.8h2.131v5.861c0 2.432-1.436 4.087-4.409 4.087s-4.438-1.671-4.438-4.074zM93.314 46.946l1.127-1.582a4.284 4.284 0 0 0 3.106 1.319c1.143 0 1.7-.533 1.7-1.084 0-.717-.908-.922-1.977-1.186-1.6-.365-3.647-.8-3.647-3.032 0-1.625 1.407-2.973 3.706-2.973a5.442 5.442 0 0 1 3.81 1.361l-1.159 1.527a4.2 4.2 0 0 0-2.843-1.066c-.892 0-1.391.4-1.391.98 0 .631.892.834 1.947 1.084 1.6.381 3.663.866 3.663 3.077 0 1.788-1.273 3.136-3.911 3.136a5.653 5.653 0 0 1-4.131-1.561zM102.867 48.322V38.55h2.08v9.772zM113.723 48.322l-4.66-6.373v6.373h-2.08V38.55h2.13l4.529 6.127V38.55h2.081v9.772zM117.768 48.322V38.55h6.927v1.83h-4.846v2.065h4.732v1.83h-4.732v2.211h4.833v1.83zM125.747 46.946l1.127-1.582a4.284 4.284 0 0 0 3.106 1.319c1.143 0 1.7-.533 1.7-1.084 0-.717-.908-.922-1.977-1.186-1.6-.365-3.647-.8-3.647-3.032 0-1.625 1.407-2.973 3.706-2.973a5.442 5.442 0 0 1 3.81 1.361l-1.151 1.527a4.2 4.2 0 0 0-2.843-1.066c-.892 0-1.391.4-1.391.98 0 .631.9.834 1.947 1.084 1.6.381 3.663.866 3.663 3.077 0 1.788-1.273 3.136-3.911 3.136a5.687 5.687 0 0 1-4.139-1.561zM134.65 46.946l1.127-1.582a4.284 4.284 0 0 0 3.106 1.319c1.143 0 1.7-.533 1.7-1.084 0-.717-.908-.922-1.977-1.186-1.6-.365-3.647-.8-3.647-3.032 0-1.625 1.407-2.973 3.706-2.973a5.442 5.442 0 0 1 3.81 1.361l-1.159 1.527a4.2 4.2 0 0 0-2.843-1.066c-.892 0-1.391.4-1.391.98 0 .631.9.834 1.948 1.084 1.6.381 3.663.866 3.663 3.077 0 1.788-1.273 3.136-3.911 3.136a5.644 5.644 0 0 1-4.132-1.561z"/><path class="a" d="M184.267 62.806v-.032a5.787 5.787 0 0 1 11.573-.032v.032a5.787 5.787 0 0 1-11.573.032zm11.045-.032v-.032a5.259 5.259 0 0 0-10.518.032v.032a5.259 5.259 0 0 0 10.518-.032zm-7.529-3.133h2.664a2.47 2.47 0 0 1 1.758.623 1.561 1.561 0 0 1 .48 1.151v.032a1.757 1.757 0 0 1-1.535 1.742l1.838 2.382h-1.081l-1.71-2.238h-1.519v2.238h-.879zm2.574 2.909c.831 0 1.407-.384 1.407-1.066v-.032c0-.623-.512-1.023-1.359-1.023h-1.742v2.11zM63.313 68.58H9a9.015 9.015 0 0 1-9-9V9a9.015 9.015 0 0 1 9-9h54.313v68.58M9 1.407A7.606 7.606 0 0 0 1.407 9v50.57a7.606 7.606 0 0 0 7.6 7.6h52.9V1.407z"/></svg><svg width="39" height="32" id="layer1" y="299"><path d="M12.383 32c14.86 0 22.985-12.31 22.985-22.985 0-.349-.008-.7-.024-1.044a16.444 16.444 0 0 0 4.031-4.183 16.09 16.09 0 0 1-4.64 1.272A8.1 8.1 0 0 0 38.287.592a16.211 16.211 0 0 1-5.129 1.96 8.085 8.085 0 0 0-13.766 7.367A22.934 22.934 0 0 1 2.74 1.478a8.089 8.089 0 0 0 2.5 10.786 8.016 8.016 0 0 1-3.659-1.011v.1a8.082 8.082 0 0 0 6.481 7.92 8.168 8.168 0 0 1-2.129.283 8.083 8.083 0 0 1-1.519-.145 8.087 8.087 0 0 0 7.547 5.611A16.208 16.208 0 0 1 1.927 28.48 16.59 16.59 0 0 1 0 28.368a22.876 22.876 0 0 0 12.384 3.629" fill="#013253"/></svg><svg width="39" height="32" id="layer2" y="331"><path d="M12.383 32.001c14.86 0 22.985-12.31 22.985-22.986q0-.523-.024-1.044a16.444 16.444 0 0 0 4.031-4.183 16.091 16.091 0 0 1-4.64 1.272A8.1 8.1 0 0 0 38.287.592a16.19 16.19 0 0 1-5.129 1.961A8.085 8.085 0 0 0 19.39 9.915 22.941 22.941 0 0 1 2.738 1.474a8.087 8.087 0 0 0 2.5 10.785 8.015 8.015 0 0 1-3.659-1.01v.1a8.082 8.082 0 0 0 6.481 7.919 8.122 8.122 0 0 1-3.648.139 8.087 8.087 0 0 0 7.547 5.61 16.208 16.208 0 0 1-10.034 3.458 16.59 16.59 0 0 1-1.927-.112 22.877 22.877 0 0 0 12.384 3.63" fill="#1da1f2"/></svg></svg>