<svg xmlns="http://www.w3.org/2000/svg" width="59" height="48" viewBox="0 0 59 48"><defs><style>.a{fill:#3b5998;}.b{fill:#fff;}</style></defs><g transform="translate(-648 -554)"><path class="a" d="M3,0H59a0,0,0,0,1,0,0V48a0,0,0,0,1,0,0H3a3,3,0,0,1-3-3V3A3,3,0,0,1,3,0Z" transform="translate(648 554)"/><g transform="translate(156.541 -4.459)"><rect class="b" width="36" height="36" rx="4" transform="translate(497.459 563.459)"/><path class="a" d="M26.06,37.506h9.407a2.038,2.038,0,0,0,2.037-2.038V2.626A2.037,2.037,0,0,0,35.468.588H2.626A2.037,2.037,0,0,0,.588,2.626V35.468a2.038,2.038,0,0,0,2.038,2.038H20.307V23.212H15.5V17.64h4.811V13.531c0-4.768,2.912-7.365,7.166-7.365a39.44,39.44,0,0,1,4.3.22v4.983h-2.95c-2.313,0-2.761,1.1-2.761,2.712V17.64h5.517l-.719,5.572h-4.8Z" transform="translate(496.412 562.412)"/></g></g></svg>