<svg xmlns="http://www.w3.org/2000/svg" width="84" height="84" viewBox="0 0 84 84">
  <g id="Group_19508" data-name="Group 19508" transform="translate(-268.601 -258)">
    <path id="Polygon_9" data-name="Polygon 9" d="M18.1,1.845a1,1,0,0,1,1.8,0L37.3,37.562A1,1,0,0,1,36.4,39H1.6a1,1,0,0,1-.9-1.438Z" transform="matrix(0.966, -0.259, 0.259, 0.966, 268.601, 304.329)" fill="#3076a5"/>
    <g id="Group_19342" data-name="Group 19342" transform="translate(269 258)">
      <ellipse id="Ellipse_124" data-name="Ellipse 124" cx="41.8" cy="41.873" rx="41.8" ry="41.873" fill="#3076a5"/>
      <g id="Ellipse_125" data-name="Ellipse 125" transform="translate(6 6)" fill="none" stroke="#fff" stroke-width="1">
        <ellipse cx="35.8" cy="35.873" rx="35.8" ry="35.873" stroke="none"/>
        <ellipse cx="35.8" cy="35.873" rx="35.3" ry="35.373" fill="none"/>
      </g>
      <g id="Group_18701" data-name="Group 18701" transform="translate(23.888 18.851)">
        <path id="Path_6023" data-name="Path 6023" d="M109.023,643.77a.427.427,0,0,0-.353.1l-3.45,3.041-.978,1.171-1.107-1.329-3.309-2.885a.459.459,0,0,0-.351-.1c-7.539,1.246-13.429,7.01-13.5,9.412a86.143,86.143,0,0,0,2.532,9.5.413.413,0,0,0,.4.295h30.678a.415.415,0,0,0,.415-.295,87.076,87.076,0,0,0,2.532-9.5C122.45,650.78,116.552,645.024,109.023,643.77Zm-9.346,5.641-2.347-4.048,1.942-.642L101.9,646.9Zm9.244,0L106.7,646.9l2.629-2.174,1.942.642Z" transform="translate(-85.976 -618.189)" fill="#fff"/>
        <path id="Path_6024" data-name="Path 6024" d="M100.145,656.51a9.839,9.839,0,0,0,9.323-8.951,8.784,8.784,0,0,0-.8-9.494,18.8,18.8,0,0,0,1.815-2.55.417.417,0,0,0-.012-.438.43.43,0,0,0-.415-.189,9.426,9.426,0,0,1-4.64-1.261,13.644,13.644,0,0,0-5.583-1.6,9.721,9.721,0,0,0-7.41,4.322,3.866,3.866,0,0,0-1.983,2.227,12.789,12.789,0,0,0,.4,9.236A9.813,9.813,0,0,0,100.145,656.51Zm8.036-10.526a8.654,8.654,0,0,1-8.036,9.138,8.541,8.541,0,0,1-8-8.341,10.079,10.079,0,0,1,2.69-5.85,12.341,12.341,0,0,0,5.4,1.3,10.341,10.341,0,0,0,5.63-1.662,7.016,7.016,0,0,1,2.044,3.026,10.389,10.389,0,0,1,.276,2.4Z" transform="translate(-81.893 -630.83)" fill="#fff"/>
        <path id="Rectangle_7733" data-name="Rectangle 7733" d="M.286,0H2.6A1.408,1.408,0,0,1,4.005,1.408V5.99A1.408,1.408,0,0,1,2.6,7.4H.286A.286.286,0,0,1,0,7.112V.286A.286.286,0,0,1,.286,0Z" transform="translate(29.201 11.714)" fill="#fff"/>
        <path id="Rectangle_7734" data-name="Rectangle 7734" d="M.286,0H2.6A1.408,1.408,0,0,1,4.005,1.408V5.99A1.408,1.408,0,0,1,2.6,7.4H.286A.286.286,0,0,1,0,7.112V.286A.286.286,0,0,1,.286,0Z" transform="translate(7.171 19.112) rotate(-180)" fill="#fff"/>
        <path id="Path_6018" data-name="Path 6018" d="M88.821,644.291a12.38,12.38,0,1,1,24.742,0" transform="translate(-82.912 -631.45)" fill="none" stroke="#fff" stroke-miterlimit="10" stroke-width="1"/>
      </g>
    </g>
  </g>
</svg>
