<svg xmlns="http://www.w3.org/2000/svg" width="141" height="48" viewBox="0 0 141 48"><defs><style>.a,.c{fill:#fff;}.a{opacity:0.582;}.b{fill:#013253;}.d,.e{fill:#0c3353;}.d{opacity:0;}</style></defs><g transform="translate(-16 -16)"><rect class="a" width="48" height="48" transform="translate(16 16)"/><g transform="translate(64.354 28.361)"><path class="b" d="M182.42,243.92q.589.039,1.277.06t2.067.02q.763,0,2.475-.041t2.676-.039q4.99,0,7.813,2.624a9.438,9.438,0,0,1,2.823,7.271q0,4.7-2.676,7.244t-7.626,2.543q-.829,0-2.568-.054t-2.635-.053q-.95,0-1.846.028t-1.78.08v-1.071a2.9,2.9,0,0,0,1.879-.4,2.972,2.972,0,0,0,.394-1.908v-12.92a2.906,2.906,0,0,0-.394-1.9,3.11,3.11,0,0,0-1.879-.4ZM188.173,245v17.5H190.1a15.138,15.138,0,0,0,2.722-.187,5.057,5.057,0,0,0,1.679-.63,5.649,5.649,0,0,0,2.389-2.932,13.817,13.817,0,0,0,.8-5.048q0-4.659-1.812-6.681T189.764,245Z" transform="translate(-182.42 -243.92)"/><path class="b" d="M240.971,264.271c0-.7-.116-1.134-.348-1.312a3.9,3.9,0,0,0-1.873-.281v-.964q1.311-.04,2.595-.14t2.529-.275v3.521a7,7,0,0,1,1.6-2.6,2.943,2.943,0,0,1,2.067-.917,2.409,2.409,0,0,1,1.739.615,2.162,2.162,0,0,1,.642,1.635,1.765,1.765,0,0,1-.387,1.2,1.294,1.294,0,0,1-1.03.449,1.446,1.446,0,0,1-1.1-.4,1.648,1.648,0,0,1-.382-1.178,2.558,2.558,0,0,1,.087-.663,3.722,3.722,0,0,1,.247-.662h-.027q-1.312,0-2.3,1.787a8.761,8.761,0,0,0-.99,4.3v3.562q0,1.193.448,1.506a6.1,6.1,0,0,0,2.535.369v.923q-1.645-.067-2.723-.1t-1.852-.033q-.362,0-1.071.027t-2.595.107v-.923a4.34,4.34,0,0,0,1.872-.4q.322-.268.321-1.472Z" transform="translate(-218.526 -255.06)"/><path class="b" d="M269.069,288.9a1.569,1.569,0,0,1,1.211.5,1.9,1.9,0,0,1,.461,1.334,1.942,1.942,0,0,1-.461,1.345,1.551,1.551,0,0,1-1.211.516,1.592,1.592,0,0,1-1.224-.516,1.908,1.908,0,0,1-.475-1.345,1.851,1.851,0,0,1,.481-1.319A1.59,1.59,0,0,1,269.069,288.9Z" transform="translate(-236.871 -272.749)"/><path class="b" d="M285.206,243.92q.856.039,1.7.06t1.673.02q1.593,0,3.271-.041t1.772-.039a8.909,8.909,0,0,1,5.137,1.185,4.193,4.193,0,0,1,1.659,3.662,4.375,4.375,0,0,1-1.3,3.341,5.9,5.9,0,0,1-3.746,1.4v.08a7.277,7.277,0,0,1,4.368,1.445,4.412,4.412,0,0,1,1.491,3.548,4.242,4.242,0,0,1-1.826,3.817q-1.826,1.2-5.839,1.2-1,0-2.575-.04t-2.134-.04q-.816,0-1.739.019t-1.9.06l-.013-1.071a2.9,2.9,0,0,0,1.88-.4,2.974,2.974,0,0,0,.395-1.908V247.039c0-.918-.139-1.482-.415-1.687a3.772,3.772,0,0,0-1.86-.348Zm5.725,1.125v7.939h2.033a4.275,4.275,0,0,0,3.091-.93,5.528,5.528,0,0,0,.02-6.126,4.974,4.974,0,0,0-3.418-.883Zm0,9.038v8.394h1.821a5.717,5.717,0,0,0,3.725-.93,4.054,4.054,0,0,0,1.063-3.181,4.228,4.228,0,0,0-1.11-3.294,5.609,5.609,0,0,0-3.746-.99Z" transform="translate(-248.304 -243.92)"/><path class="b" d="M337.843,267.726a7.275,7.275,0,0,0,1.1,4.311,3.662,3.662,0,0,0,3.143,1.473,4.377,4.377,0,0,0,2.523-.723,4.445,4.445,0,0,0,1.612-2.1l.776.242a5.4,5.4,0,0,1-2.1,3.032,6.693,6.693,0,0,1-3.853,1.024,6.285,6.285,0,0,1-4.763-1.8,7.957,7.957,0,0,1,.074-9.988,6.239,6.239,0,0,1,4.743-1.895,5.729,5.729,0,0,1,4.321,1.634,6.182,6.182,0,0,1,1.578,4.485v.2Zm-.013-.938,6.368-.16a5.64,5.64,0,0,0-.783-3.247,2.594,2.594,0,0,0-2.267-1.118,2.783,2.783,0,0,0-2.348,1.2A5.88,5.88,0,0,0,337.829,266.788Z" transform="translate(-279.933 -255.06)"/><path class="b" d="M373.178,264.271c0-.7-.116-1.134-.348-1.312a3.9,3.9,0,0,0-1.873-.281v-.964q1.311-.04,2.6-.14t2.529-.275v3.521a7,7,0,0,1,1.6-2.6,2.94,2.94,0,0,1,2.066-.917,2.409,2.409,0,0,1,1.74.615,2.16,2.16,0,0,1,.642,1.635,1.765,1.765,0,0,1-.387,1.2,1.293,1.293,0,0,1-1.03.449,1.451,1.451,0,0,1-1.1-.4,1.649,1.649,0,0,1-.382-1.178,2.589,2.589,0,0,1,.087-.663,3.812,3.812,0,0,1,.248-.662h-.027q-1.311,0-2.3,1.787a8.761,8.761,0,0,0-.99,4.3v3.562q0,1.193.448,1.506a6.1,6.1,0,0,0,2.535.369v.923q-1.644-.067-2.722-.1t-1.853-.033q-.361,0-1.07.027t-2.6.107v-.923a4.337,4.337,0,0,0,1.872-.4q.322-.268.321-1.472Z" transform="translate(-303.268 -255.06)"/><path class="b" d="M412.839,262.188a5.094,5.094,0,0,1,1.3-1.179,2.8,2.8,0,0,1,1.364-.308,1.739,1.739,0,0,1,.957.194.793.793,0,0,1,.274.69.932.932,0,0,1-.234.69.912.912,0,0,1-.675.234,2.092,2.092,0,0,1-.842-.2,2.116,2.116,0,0,0-.576-.2.939.939,0,0,0-.508.174,1.481,1.481,0,0,0-.455.482,3.905,3.905,0,0,1,.709,1.238,4.487,4.487,0,0,1,.228,1.466,4.184,4.184,0,0,1-1.364,3.348,5.765,5.765,0,0,1-3.88,1.179c-.071,0-.254,0-.548-.013s-.549-.014-.763-.014a2.216,2.216,0,0,0-1.191.261.874.874,0,0,0-.4.783q0,1.313,4.174,1.473l.763.04a8.64,8.64,0,0,1,4.113.9,2.69,2.69,0,0,1,1.251,2.449,3.934,3.934,0,0,1-2.046,3.38,9.551,9.551,0,0,1-5.3,1.332,8.442,8.442,0,0,1-4.167-.9,2.664,2.664,0,0,1-1.585-2.344,2.574,2.574,0,0,1,.622-1.714,3.971,3.971,0,0,1,1.8-1.138,2.625,2.625,0,0,1-1.217-.923,2.574,2.574,0,0,1,.2-3.033,3.7,3.7,0,0,1,1.726-1.063,3.836,3.836,0,0,1-2.08-1.386,3.929,3.929,0,0,1-.742-2.417,4.353,4.353,0,0,1,1.465-3.4,5.506,5.506,0,0,1,3.819-1.313,7.027,7.027,0,0,1,2.174.315A4.478,4.478,0,0,1,412.839,262.188Zm-6.275,12.826a2.479,2.479,0,0,0-1.137.817,1.975,1.975,0,0,0-.4,1.218,2.105,2.105,0,0,0,1.124,1.895,6.161,6.161,0,0,0,3.157.676,7.243,7.243,0,0,0,3.539-.756,2.213,2.213,0,0,0,1.359-1.923q0-1.431-3.973-1.646Q407.982,275.175,406.564,275.014Zm2.488-13.135a2.165,2.165,0,0,0-1.893.877,4.618,4.618,0,0,0-.622,2.657,4.8,4.8,0,0,0,.616,2.718,2.153,2.153,0,0,0,1.9.885,2.2,2.2,0,0,0,1.92-.891,5.955,5.955,0,0,0,0-5.355A2.2,2.2,0,0,0,409.052,261.879Z" transform="translate(-324.086 -254.676)"/></g><g transform="translate(-868.376 -96.762)"><path class="c" d="M894.251,151.731l2.517-1.214,3.159-1.524,3.273-3.005,1.87-2.437,1.369-1.336-.167-3.573-1.3-3.206-1.508-2.638-1.081-4.448-.716-3.232s-1.693-4.769.92-7.076,5.785-4.477,10.96-3.175,4.975,2.037,4.975,2.037l2.5,1.235,1.436,2.137v2.938l-.267,2.534.23,2.363-.4,1.68.434.315.321,1.488s-.521,1.536-.555,1.67-.768,1.542-.768,1.542l-.534.929-.944,3.2-.556,1.344.649,2.366s1.092,1.137,1.3,1.376a21.468,21.468,0,0,1,.883,2.736l1.736,1.4v2.17l.434,3.873-.467,2.9h-.935l-2.2-2.5-2.938-.768-2.07.868-2.5,4.274-.7-.234-.225-1.937-1.545-1.269a11.148,11.148,0,0,0-1.5-.145c-.234.045-2.938-.556-3.072-.423s-2.872,1.67-3.039,1.736-1.3.534-1.3.534a8.082,8.082,0,0,1-.434-1.035c0-.134-.2-2.237-.2-2.237s-.033-.835-.033-.935-.067-1.01-.067-1.01l-.661-.836.528-.726-.167-.634-.468-.234Z" transform="translate(-3.099 -0.316)"/><path class="d" d="M934.786,153.922c.93.162,2.6-5.921,3.866-9.057-.826-1.467-.507-2.513-1.017-2.934a1.019,1.019,0,0,1-.008-1.63c.545-.386.613-1.428,1.036-2.686-.314-.131-.9.006-.986-.291-.471-1.717.384-5.146.161-6.6a.451.451,0,0,0,.051-.681,9.609,9.609,0,0,1-1.3-1.122c-.381-.434,1.41-.939,1.484-1.487.017-.127-1.764-.282-1.74-.408,2.24-.464-.174-.44,0-.464,2.024-.268,1.1-1.033,1.216-1.7.065-.378-.575-.62.622-1.146.3-.132-.483-.432-.726-.651l0,0a1.08,1.08,0,0,0-.09-.073.391.391,0,0,0-.166-.069c4.736-4.563-5.881-2.581-6.013-2.558.1-.049,1.536-1.315.585-1a6.209,6.209,0,0,0-1.258.574c-4.947,2.988-2.6,11.957-.994,18.622,1.138,1.081,2.763,5.019,3.807,7.5.16.38-.656-.006-1.511.519-.879.54-1.434.75-2.506,2.957a22.923,22.923,0,0,0-1.877,11.45c.058.821,4.9-4.189,11.233-.592C939.574,160.92,934.689,153.905,934.786,153.922Z" transform="translate(-28.777 -4.073)"/><g transform="translate(890.256 114.068)"><path class="e" d="M967.006,218.443c-.958-.02-2.038.041-2.527-.02a5.21,5.21,0,0,1-1.141-.306c-.346-.1.346.672.631.9a2.365,2.365,0,0,0,1.793.652,2.693,2.693,0,0,0,2.3-.713C968.779,218.321,967.964,218.463,967.006,218.443Z" transform="translate(-946.882 -194.785)"/><path class="e" d="M944.056,171.417c-.632,0-.53.2-.53.2a8.316,8.316,0,0,0,3.464-.306c1.508-.57,1.263-2.119,1.385-2.527.122-.387-.081-.958-.591-.794s-.774-.122-2.69-.122a3.638,3.638,0,0,0-2.812,1.141.813.813,0,0,0-.122.856c.061.183-.143.693-.041.672.285-.081,1.182-1.324,2.628-1.487a3.391,3.391,0,0,1,1.956.143,5.667,5.667,0,0,0-2.2.326,3.74,3.74,0,0,0-2.038,1.834c-.041.183.2.245.448.2.244-.061.53-.591.611-.591a4.712,4.712,0,0,0,1.161-.122,10.976,10.976,0,0,1,2.3-.1s-.509.122-1,.285A7.763,7.763,0,0,1,944.056,171.417Z" transform="translate(-930.471 -155.81)"/><path class="e" d="M980.743,167.573a5.173,5.173,0,0,1,2.078-.163c.163.02.408.061.672.081h.021c.693.082,1.385.774,1.63.754.245-.041.122-.367.122-.367a2.383,2.383,0,0,0-.632-1.1,2.306,2.306,0,0,0-1.284-.265c-.183,0-.346.02-.53.02a3.109,3.109,0,0,1-.632-.02,5.287,5.287,0,0,0-1.834-.041c-1.121.183-.734,1.935-.734,1.935a.712.712,0,0,0,.489.856c.408.122-.04.53.408.9.469.387,3.2.183,3.2.183a2.786,2.786,0,0,0-.57-.469,6.44,6.44,0,0,0-1.447-.163,6.4,6.4,0,0,1-1.039-.245,2,2,0,0,1,.53-.02,4.6,4.6,0,0,0,1.752-.061.85.85,0,0,0,.448-.469,3.615,3.615,0,0,1,.713.428,2.276,2.276,0,0,0,1.019.489c.122-.041-.081-.428-.571-.856a4.258,4.258,0,0,0-2.058-1.2,6.58,6.58,0,0,0-2.241.428A.8.8,0,0,1,980.743,167.573Z" transform="translate(-959.539 -154.674)"/><path class="e" d="M928.3,190.051c-.739-1.328-2.584-1.346-3.847-1.916a27.255,27.255,0,0,1-4.6-2.218c-1.163-.722-.7-2.726-2.042-3.14.517,1.638.728,3.347,1.183,5,.743.168.462-1.489.9-1.081a2.728,2.728,0,0,1,.7,1.437c.339,1.722,1,11.787-1.292,6.306-1.51-3.541-5.468-5.549-7.44-1.152-.434,1.319-.653,1.569-1.617,4.038,1.144-4.638,1.686-7.168,4.116-7.463,3.972-1.2,2.465-4.541,2.652-7.917l-.513-3.218.041-.1a17.608,17.608,0,0,0,1.426-3.729l.143-.53c.387.2.469.1.611-.061a10.04,10.04,0,0,1,.489-1.365,5.632,5.632,0,0,0,.632-2.4c0-.469,0-.734.02-1.284.02-.428-.1-.876-.693-.733l.061-.489c.046-.471.1-.973.131-1.472a5.715,5.715,0,0,1-2.049-1.794c.267.963,1.11,2.53,1.041,2.736-.245.571.1.856-.122,1.426-.082.163.02.367.244.285.265-.02.774.02.754.428,0,.347.183.591.2.917a1.885,1.885,0,0,1-.02.326c-.1-.346-.632-1.141-.815-.978a9.372,9.372,0,0,0,.02,1.284,4.6,4.6,0,0,1-1.1,3.056,11.78,11.78,0,0,1-1.243,4.085,3.094,3.094,0,0,1-.735.975,1.721,1.721,0,0,1-1.182.346c-.122.02-1.747,2.124-3.735,1.4-.849-.309-.892.134-2.115.2-1.447.061-2.6-1.421-2.9-2.623-.265-1.1-.762-1.141-1.271-1.875-.489-.733.469-1.875.469-1.875a1.732,1.732,0,0,0,.081.917c.2.428.713.347.958.326a1.43,1.43,0,0,1,.652.122,9.358,9.358,0,0,0,1.487.041c.061-.02.082-.245.367-.367.082-.02.163-.041.285-.082a16.419,16.419,0,0,1,3.158-.143.216.216,0,0,1,.183.2.849.849,0,0,1,.082.2c.122.02.53,0,.693,0,.183,0,.163-.183.285-.2a.6.6,0,0,1,.448.2.438.438,0,0,0,.1.081,2.56,2.56,0,0,1,.652,1.06c.285.876.285,1.365.407,1.263a5.6,5.6,0,0,0,.082-2.241c-.163-.876-.306-.754-.652-1.528-.122-.285.224-.387.387-.326.143.041.55.306.835.061a1.3,1.3,0,0,0-.183-1.936,5.477,5.477,0,0,0-2.3-1.059c-.285-.1-.958-.489-1.141-.571-.183-.061-.122.061-.122.061a1.551,1.551,0,0,1,.163.407,2.058,2.058,0,0,1,.061.53v.02a1.07,1.07,0,0,0,.041.367c.061.02.326-.245.611.02a2.852,2.852,0,0,1,.591,2.262c.02.448-.082.53-.795.55-.632.02-.448-.082-.55-.183s-.591-.061-.856-.061-.326-.061-.326-.285c-.02-.2-.227-.336-.227-.723a4.845,4.845,0,0,1,.105-.866,5.424,5.424,0,0,0,.55-.082,1,1,0,0,0,.591-.285c.1-.1-.183-.387-.876-.265-.428.061-.576.4-.76.5a.791.791,0,0,1-1.085,0,1.5,1.5,0,0,0-1.084-.362c-.367,0-.587.369-.723.181a1.642,1.642,0,0,1,.188-1.808,4.019,4.019,0,0,0-1.834.795,4.336,4.336,0,0,1-3.826.911c-.611-1.019-.639-.783-.781-2-.061-.53-.466-1.106-.324-1.616a12.172,12.172,0,0,0,.551-3.125c-.677.37-1.375.709-2.036,1.1a11.341,11.341,0,0,1,.222,1.677c-.448.081-.53.1-.509.55.041.591.387,1.2.428,1.936a5.775,5.775,0,0,0,.632,2.262,14.637,14.637,0,0,0,.856,1.793c.224.306.448.265.774.244a17.3,17.3,0,0,0,1.032,2.822l.362.406v3.028c-.053.528-.75.562-1.085,1.265a20.516,20.516,0,0,0,1.249,5.948c3.45,3.631,5.488,2.509,6.741,6.763-2.287-3.51-3.363-2.119-6.088-3.582-2.043-.685-3.241,2.889-4.742,3.782a43.6,43.6,0,0,1,.033-5.527,17.543,17.543,0,0,1,1.084-3.556c.005.188.878,1.293.823.544a11.2,11.2,0,0,1,.071-2.353,2.453,2.453,0,0,0,.053-.346l0-.017h0c0-.053.01-.105.012-.161.014-.6-.829.134-.848.271-.23.569-1.163.808-1.66.922-.279.063-.392.423-.367.735-.465.151-.988.347-1.06.375-2.645,1.016-4.518,2.892-6.687,4.157.361,1.085,3.892-.812,5.66-1.418.41-.141,1.235-.621,1.5-.022a1.414,1.414,0,0,1,.025.763,12.887,12.887,0,0,0,.456,5.631,2.13,2.13,0,0,0,.394.8c1.071,1.2,3.15-.8,4.062-1.374a3,3,0,0,1,2.1-.548,3.8,3.8,0,0,1,1.156.51c1.077.627,2.3-.253,3.083.717.248.307.341,2.174.634,2.438,1.2,1.074,2.349-1.307,3.006-2.176a8.741,8.741,0,0,1,1.942-2.184,2.088,2.088,0,0,1,2.207-.03,7.86,7.86,0,0,1,1.571,1.108c.471.4,1.314,1.623,1.865,1.776,1.854.514,1.763-3.424,1.637-4.734.2-.842-1.115-4.455.174-4.149.333.1.664.219.995.341,1.269.466,2.527,1.03,3.822,1.454C926.991,189.944,928.544,191.171,928.3,190.051ZM906.427,173c.061-.143.306-.245.306-.245s.672.958.917,1.243.693.713.693.713a4.608,4.608,0,0,0-.795.143c-.244.061-.937.082-1.1-.408-.183-.469.082-.611.143-.876C906.672,173.331,906.386,173.147,906.427,173Zm3.521,17.438a4.426,4.426,0,0,0-1.919-2.719c-.434-.285,1.5-.186,1.746-1.179.181-.723-.9-.362-.542-2.35a9.437,9.437,0,0,1,1.436-.9c.312-.168.378-.911.733-1.084,1.426-.7,3.57-1.078,4.612-2.12.327-.625.646,4.573-.39,5.943-.465.614-.386,1.5-.814,2.154a.815.815,0,0,1-.582.417,4.4,4.4,0,0,0-1.79.671,7.191,7.191,0,0,0-1.615,1.368c-.155.176-.323.446-.585.393S910,190.658,909.949,190.443Z" transform="translate(-890.256 -153.402)"/><path class="e" d="M926.4,126.552a1.264,1.264,0,0,1,1-.466c.08-.762.029-1.23-.342-1.079-1.261,1.554.18-.229.051-.96-.544.331-.649-.068-.487-.742a4.107,4.107,0,0,0,.693-1.7c.536-.984,1.271-1.9,1.925-2.011,2,.289,4.038-.563,6.068-.173,1.256-1.355,2.949-.8,4.556-1.35,3.767-2.162,7.509,2.961,1.351.213-.264-.246-1.34-.359-.81.191,2.6.932,3.19,3.4,4.647,5.43-2.958-2.055.5,2.665.6,2.161-.251-2.723,1.3-5.826-.735-7.916-.877-.989-2.334-.855-3.016-2.006-1.506-1.519-3.777-1.685-5.808-1.9a5.617,5.617,0,0,1-.968-.166c-.167-.051-.2.3-.054.347a6.408,6.408,0,0,0,1.057.178c-.054.1-.022.295.1.3a9.2,9.2,0,0,1,1.252.195c1.277.625,2.6,1.325,1.793,1.229-1.452-.247-1.809.637-3.575-.13-.644.194-.08.816.147,1.126-1.275.482-3.323-.9-4.876-.387-.817.006-3.884.645-2.143,1.332a4.111,4.111,0,0,0-.447.073,1.367,1.367,0,0,0-1,.759,6.535,6.535,0,0,0-2.024,2.2,5.083,5.083,0,0,1,.744-2.813c.443-.431,1.236-1.126,1.088-1.767a.124.124,0,0,1-.038-.063.318.318,0,0,0-.011-.048v0l-.006-.013-.012-.021h0c-.01-.01-.01-.011,0-.006l-.019-.02h0l-.076.038a.076.076,0,0,0-.036.042,8.493,8.493,0,0,0-2.556,3.244c-.823,2.568.465,4.972.81,7.646A4.447,4.447,0,0,0,926.4,126.552Z" transform="translate(-916.543 -114.068)"/></g></g></g></svg>